<?xml version="1.0" encoding="UTF-8"?>
<!DOCTYPE svg PUBLIC "-//W3C//DTD SVG 1.1//EN" "http://www.w3.org/Graphics/SVG/1.1/DTD/svg11.dtd">
<!-- Creator: CorelDRAW 2021 (64-Bit) -->
<svg xmlns="http://www.w3.org/2000/svg" xml:space="preserve" width="654.727mm" height="654.727mm" version="1.1" style="shape-rendering:geometricPrecision; text-rendering:geometricPrecision; image-rendering:optimizeQuality; fill-rule:evenodd; clip-rule:evenodd"
viewBox="0 0 38169.97 38169.97"
 xmlns:xlink="http://www.w3.org/1999/xlink"
 xmlns:xodm="http://www.corel.com/coreldraw/odm/2003">
 <defs>
  <style type="text/css">
   <![CDATA[
    .str0 {stroke:#2B2A29;stroke-width:11.66;stroke-miterlimit:22.9256}
    .fil1 {fill:#FEFEFE}
    .fil0 {fill:#E31E24}
    .fil2 {fill:black}
   ]]>
  </style>
 </defs>
 <g id="Слой_x0020_1">
  <metadata id="CorelCorpID_0Corel-Layer"/>
  <rect class="fil0" x="-0" y="-0" width="38169.97" height="38169.97"/>
  <path class="fil1 str0" d="M27257.24 13642.43c1668.75,-2403.41 3424.79,-4619.96 5161.84,-6356.42l-2038.12 2579.7c-1031.85,1384.95 -2008.99,2806.61 -2942.83,4256.13 -60.5,-158.67 -120.86,-318.53 -180.89,-479.4z"/>
  <path class="fil1 str0" d="M29951.9 20340.85c1897.98,-2477.63 3385.8,-5273.79 4428.15,-8322.22 1028.01,-3006.42 1876.98,-7192.02 1715.73,-10279.97 -924.24,825.85 -1889.57,1936.58 -2783.05,2838.28 -2188.11,2208.24 -4631.38,4585.29 -6821.58,6888.07 -242.84,-740.32 -465.98,-1481.68 -655.75,-2205.01 -102.65,-391.2 -445.5,-1830.62 -440.7,-2173.6 1080.76,-38.56 2161.74,-60.28 3242.94,-85.16 316.14,-7.26 1355.95,8.14 1564.49,-95.07 360.87,-178.6 568.7,-556.42 691.33,-1053.94 246.27,-998.79 13.57,-2048.34 -548.3,-2832.7 -553.64,-772.88 -1309.09,-1042.25 -2169.3,-1227.86 -1108.51,-109.08 -2350.16,-19.43 -3480.18,1.54l-19318.74 377.24c-287.53,6.37 -580.54,11.97 -870.37,17.17 -377.38,6.78 -437.78,22.89 -748.79,168.25 -431.31,201.57 -834.9,499.44 -1070.32,793.9 -132.56,165.85 -260.05,344.72 -374.12,565.35 -122.73,237.44 -248.68,647.99 -281.47,688.62 0.84,14.89 -118.8,661.82 -135.52,920.27 -125.58,1943.72 650.82,4297.92 1288.19,6016.29 751.7,2026.67 1620.13,3930.02 2472.85,5807.05 1332.11,2932.45 2607.99,5604.11 3792.68,8649.21 194.92,501.06 369.16,1001.52 549.85,1521.49 165.69,476.65 373.35,1087.38 484,1579.58 -355.57,49.94 -784.23,62.62 -1148.11,86.37l-2290.29 169.2c-797.18,58.84 -1333.12,-13.45 -2015.5,482.7 -1779.44,1293.74 -1144.75,4241.96 225.93,5760.27l469.7 479.08c387.92,363.55 1012.43,718.8 1647.65,882 813.66,209.05 1406.96,50.1 2212.06,-30.48 2975.98,-297.82 5958.9,-617.61 8931.12,-930.85 2977.38,-313.78 5952.08,-598.85 8924.51,-930.04 746.64,-83.16 1491,-147.49 2237.53,-233.24 670.09,-77 1575.13,-91.79 2150.55,-329.63 1246.41,-515.14 1645.47,-1864.5 1452.26,-3674.89 -152.49,-1428.87 -601.29,-3005.8 -1031.53,-4248 -479.64,-1384.94 -879.5,-2461.44 -1410.18,-3814.05 -266.63,-679.64 -578.19,-1464.92 -887.73,-2225.23z"/>
  <path class="fil1 str0" d="M16052.96 33730.03l86.52 -15.82c1383.21,-1247.35 2448.11,-3107.13 3484.94,-4712.3 393.31,-608.92 400.66,-420.97 983.71,-766.1 751.47,-444.8 1477.89,-852.01 2215.48,-1329.15 2584.44,-1671.89 4826.99,-3697.18 6697.71,-6017.59 412.54,1009.1 823.75,2021.26 1220.91,3051.62 360.67,935.71 685.22,1837.14 1003.87,2798.15 524.11,1580.65 1524.99,4795.14 648.22,6312.53 -201.5,348.66 -583.07,635.79 -1087.37,756.66 -194.85,46.71 -1318.63,146.83 -1616.98,179.13 -4318.1,467.72 -8631.27,884.98 -12953.1,1350.8 -1080.82,116.49 -2163.73,230.99 -3245.29,338.34l-2433.21 253.95c-257.1,27.17 -561.26,74.72 -817.42,81.51 65.41,-97.95 89.27,-89.43 152.56,-153.17 921.58,-927.57 1238.59,-2096.53 1237.15,-3520.54 -3.42,-3366.26 -2283.88,-8540.06 -3665.3,-11561.57 -785.12,-1717.23 -1597.54,-3463.32 -2364.35,-5186.19 -711.56,-1598.82 -1656.61,-3743.12 -2192.22,-5373.83 -210.89,-642.05 -416.51,-1270.55 -585.45,-1951.42 -80.38,-324 -428.32,-1957.51 -338.35,-2229.13 -8.8,-19.61 -6.88,-4.24 -14.46,-49.95l-6.31 -193.76c-2.79,-1396.29 457.31,-2469.02 1731.61,-2935.87 119.24,-43.72 299.48,-27.94 435.24,-30.97 448.79,-9.95 1361.32,782.14 1439.18,1000 -383.18,14.45 -770.8,15.27 -1155.26,21.83 -306.44,5.27 -267.81,-25.59 -452.82,141.04 -265.19,238.88 -545.22,816.68 -655.96,1210.17 -126.39,448.97 -121.42,684.71 -61.48,1159.37 27.21,52.9 56.58,179.93 87.26,253.11 106.72,254.88 279.25,469.35 494.53,627.02 747.31,547.39 1549.39,374.02 2452.88,350.24 461.89,-12.17 924.17,-26.43 1384.71,-38.19 1845.16,-47.22 3692.75,-96.14 5540.28,-153.47 3698.36,-114.79 7399.93,-168.32 11096.8,-295.79 160.19,1420.93 659.48,3161.49 1233.23,4847.43 -363.54,387.01 -718.89,771.42 -1063.5,1152.04 -1725.85,1906.16 -3459.27,4008.73 -4715.48,6257.94 -650.32,1164.42 -1191.74,2420.35 -1473.4,3727.9 -434.35,2016.55 -141.04,2901.69 350.46,4813.91 28.95,45.97 1246.3,-2539.76 1362.77,-2772.28 1682.43,-3359.7 3917.02,-7308.81 6360.87,-10901.53 64.74,171.77 128.86,340.7 192.06,506.37 -2472.35,3907.68 -4644.16,8007.08 -6732.47,12129.06 -251.64,496.68 -486.45,995.6 -757.85,1482.42 -439.69,788.71 -657.89,1138.91 -805.12,31.78 -417.78,537.05 -2851.33,4944.4 -2699.8,5354.28z"/>
  <path class="fil1 str0" d="M6825.96 6929.79c4275.21,-137.46 8566.43,-231.17 12844.65,-335.76l9623.99 -249.89c609.11,-16.08 835.24,146.13 1036.5,-661.12 126.01,-505.55 80.27,-1113.25 -77.16,-1568.74 -290.59,-840.86 -913.97,-1389.18 -1813.87,-1616.59 -523.9,-132.38 -975.11,-120 -1524.82,-108.75l-17738.71 357.14c-1064.38,22.56 -2155.87,15.15 -3214.75,65.73 52.56,64.5 110.68,99.6 179.44,170.45 232.17,239.1 256.06,230.11 489.03,574.86 426.11,630.59 671.63,1459.51 568.44,2287.36 -85.62,686.77 -268.75,806.51 -372.75,1085.31z"/>
  <path class="fil1 str0" d="M6445.86 4464.6c-449.04,-19.2 -991.99,17.29 -1460.19,21.05 -144.51,1.18 -140.65,-17.47 -215.59,74.72 -431,530.32 -782.77,1727.84 -75.48,2176.11 284.59,180.34 559.68,251.93 948.57,242.86 322.31,-7.49 550.44,-180.67 727.47,-465.55 159.98,-257.46 259.25,-614.89 267.44,-994.44 10.57,-490.1 -81.89,-664.84 -192.23,-1054.75z"/>
  <path class="fil1 str0" d="M11047.3 32418.6c3.42,-945.93 -174.48,-2047.31 -395.33,-2889.02l-2659.28 203c84.71,94.86 144.74,119.33 223.71,226.98 226.7,309.1 356.17,551.74 438.02,981.28 130.25,683.57 4.97,1104.48 -130.82,1695.48l2523.69 -217.71z"/>
  <path class="fil1 str0" d="M11009.14 33062.94l-3644.96 316.51c52.59,-141.52 438.83,-504.92 586.83,-905.15 143.16,-387.11 215.46,-900.54 140.41,-1362.12 -141.76,-871.58 -799.23,-1262.07 -1702.66,-1253.37 -480.3,4.64 -760.12,93.52 -1088.81,346.7 -1002.7,772.37 -903.56,2366.44 -430.53,3449.94 169,387.14 323.89,657.9 532.35,956.36 631.97,904.82 1627.15,1592.71 2798.15,1612.8 445.47,7.63 718.28,-106.54 1117.67,-337.38 276.87,-160.03 612.87,-406.02 829.52,-649.46 204.12,-229.33 417.25,-551.34 573.61,-930.81 113.09,-274.53 293.18,-904.24 288.41,-1244.01z"/>
  <path class="fil2" d="M11009.14 33062.94l-3644.96 316.52c52.59,-141.52 438.83,-504.93 586.83,-905.16 143.16,-387.11 215.46,-900.54 140.41,-1362.12 -141.75,-871.57 -799.23,-1262.07 -1702.65,-1253.37 -480.31,4.65 -760.13,93.52 -1088.82,346.7 -1002.7,772.37 -903.56,2366.44 -430.54,3449.94 169.01,387.14 323.89,657.91 532.36,956.36 631.97,904.82 1627.15,1592.7 2798.15,1612.79 445.47,7.63 718.28,-106.54 1117.67,-337.38 276.87,-160.02 612.87,-406.02 829.53,-649.47 204.11,-229.33 417.25,-551.33 573.6,-930.81 113.09,-274.52 293.17,-904.23 288.41,-1244.01zm38.16 -644.34c3.42,-945.93 -174.48,-2047.31 -395.33,-2889.02l-2659.27 203.01c84.7,94.85 144.74,119.33 223.7,226.97 226.7,309.1 356.17,551.74 438.02,981.28 130.25,683.57 4.97,1104.47 -130.82,1695.48l2523.69 -217.72zm-4601.44 -27954.01c-449.03,-19.2 -991.99,17.29 -1460.19,21.05 -144.51,1.18 -140.65,-17.47 -215.59,74.72 -431,530.32 -782.78,1727.85 -75.47,2176.11 284.59,180.34 559.68,251.93 948.57,242.86 322.31,-7.49 550.45,-180.67 727.47,-465.55 159.98,-257.46 259.25,-614.89 267.44,-994.44 10.57,-490.1 -81.89,-664.84 -192.23,-1054.75zm-3960.86 1571.32c-89.97,271.62 257.97,1905.12 338.35,2229.12 168.94,680.88 374.56,1309.37 585.45,1951.43 535.61,1630.71 1480.65,3775.01 2192.22,5373.83 766.81,1722.87 1579.22,3468.96 2364.35,5186.19 1381.42,3021.51 3661.87,8195.31 3665.29,11561.57 1.44,1424.02 -315.56,2592.97 -1237.15,3520.54 -63.3,63.74 -87.16,55.22 -152.56,153.17 256.16,-6.79 560.31,-54.34 817.42,-81.51l2433.21 -253.96c1081.56,-107.35 2164.47,-221.85 3245.3,-338.33 4321.82,-465.81 8634.99,-883.07 12953.08,-1350.81 298.35,-32.29 1422.13,-132.41 1616.98,-179.12 504.3,-120.88 885.88,-408.01 1087.37,-756.67 876.78,-1517.39 -124.1,-4731.88 -648.2,-6312.53 -318.65,-961 -643.21,-1862.43 -1003.87,-2798.15 -704.29,-1827.12 -1452.74,-3597.07 -2174.44,-5394.1 -360.8,-898.41 -738.11,-1781.96 -1091.93,-2700.72 -942.46,-2447.46 -2380.46,-6135.43 -2674.68,-8745.17 -3696.87,127.48 -7398.45,181 -11096.8,295.8 -1847.53,57.32 -3695.13,106.24 -5540.28,153.46 -460.54,11.76 -922.83,26.02 -1384.71,38.19 -903.49,23.78 -1705.57,197.15 -2452.88,-350.24 -215.29,-157.67 -387.82,-372.14 -494.54,-627.02 -30.67,-73.18 -60.04,-200.2 -87.26,-253.11 -59.94,-474.66 -64.9,-710.4 61.48,-1159.37 110.75,-393.48 390.77,-971.29 655.96,-1210.17 185.02,-166.62 146.39,-135.77 452.83,-141.04 384.46,-6.56 772.07,-7.37 1155.26,-21.82 -77.86,-217.87 -990.38,-1009.96 -1439.18,-1000.01 -135.75,3.03 -316,-12.76 -435.24,30.97 -1274.3,466.84 -1734.4,1539.58 -1731.61,2935.87l6.31 193.75c7.58,45.71 5.67,30.34 14.46,49.95zm4340.96 893.88c4275.21,-137.46 8566.42,-231.17 12844.65,-335.76l9623.99 -249.9c609.11,-16.07 835.24,146.13 1036.49,-661.12 126.02,-505.55 80.28,-1113.25 -77.15,-1568.74 -290.59,-840.86 -913.97,-1389.18 -1813.87,-1616.59 -523.9,-132.38 -975.12,-119.99 -1524.82,-108.75l-17738.71 357.14c-1064.38,22.56 -2155.87,15.15 -3214.75,65.73 52.56,64.51 110.68,99.61 179.44,170.46 232.16,239.1 256.06,230.1 489.03,574.85 426.11,630.6 671.63,1459.52 568.44,2287.37 -85.61,686.77 -268.75,806.51 -372.75,1085.31zm21349.9 -5138.12c860.2,185.61 1615.67,454.98 2169.3,1227.86 561.86,784.35 794.56,1833.9 548.3,2832.69 -122.63,497.51 -330.46,875.33 -691.33,1053.94 -208.54,103.22 -1248.36,87.81 -1564.49,95.07 -1081.19,24.88 -2162.19,46.59 -3242.95,85.15 -4.8,342.98 338.05,1782.4 440.71,2173.6 511.25,1948.74 1264.56,4028.3 1993.55,5866.03 245.56,619.02 481.49,1248.51 740.63,1858.79 259.45,611.02 496.99,1247.21 758.72,1857.94 480.77,1121.95 1060.35,2573.76 1511.33,3723.32 530.68,1352.61 930.55,2429.1 1410.18,3814.04 430.24,1242.2 879.03,2819.12 1031.53,4248 193.2,1810.38 -205.85,3159.75 -1452.26,3674.88 -575.42,237.84 -1480.46,252.63 -2150.55,329.63 -746.54,85.75 -1490.89,150.07 -2237.53,233.24 -2972.42,331.19 -5947.12,616.26 -8924.51,930.04 -2972.22,313.23 -5955.14,633.03 -8931.12,930.85 -805.1,80.59 -1398.4,239.54 -2212.06,30.49 -635.22,-163.2 -1259.73,-518.45 -1647.65,-882.01l-469.7 -479.08c-1370.69,-1518.31 -2005.36,-4466.53 -225.93,-5760.27 682.37,-496.15 1218.32,-423.86 2015.5,-482.7l2290.29 -169.2c363.88,-23.75 792.55,-36.43 1148.11,-86.38 -110.65,-492.21 -318.31,-1102.93 -484,-1579.58 -180.69,-519.96 -354.93,-1020.43 -549.85,-1521.48 -1184.69,-3045.1 -2460.56,-5716.77 -3792.68,-8649.22 -852.72,-1877.04 -1721.15,-3780.39 -2472.85,-5807.05 -637.37,-1718.37 -1413.77,-4072.57 -1288.19,-6016.29 16.71,-258.45 136.36,-905.38 135.52,-920.27 32.79,-40.62 158.74,-451.18 281.47,-688.62 114.07,-220.63 241.56,-399.49 374.12,-565.34 235.42,-294.47 639.01,-592.33 1070.32,-793.9 311,-145.35 371.41,-161.46 748.79,-168.25 289.82,-5.19 582.83,-10.8 870.38,-17.18l19318.74 -377.22c1130.02,-20.98 2371.67,-110.63 3480.18,-1.55z"/>
  <path class="fil2" d="M16052.97 33730.03l86.52 -15.8c1383.22,-1247.36 2448.09,-3107.16 3484.94,-4712.31 393.33,-608.91 400.65,-420.97 983.71,-766.09 751.47,-444.79 1477.9,-852 2215.48,-1329.15 5492.22,-3552.96 9441.03,-8701.47 11556.44,-14888.05 1028.01,-3006.43 1876.98,-7192.03 1715.72,-10279.98 -924.23,825.86 -1889.56,1936.59 -2783.04,2838.28 -2711.11,2736.05 -5814.01,5731.29 -8341.84,8523.25 -1725.83,1906.16 -3459.25,4008.72 -4715.46,6257.94 -650.33,1164.41 -1191.75,2420.35 -1473.39,3727.9 -434.35,2016.55 -141.05,2901.69 350.45,4813.91 28.95,45.96 1246.31,-2539.74 1362.76,-2772.29 2912.76,-5816.54 7480.45,-13399.79 11923.81,-17841.63l-2038.12 2579.7c-3943.51,5292.97 -7089.12,11121.53 -10065.22,16995.84 -251.64,496.68 -486.45,995.58 -757.84,1482.4 -439.7,788.72 -657.91,1138.93 -805.13,31.8 -417.79,537.04 -2851.32,4944.39 -2699.79,5354.27z"/>
  <polygon class="fil1" points="26800.67,14307.75 27420.33,13408.5 27652.58,13790.44 27005.74,14799.59 "/>
 </g>
</svg>
